<svg width="172" height="49" viewBox="0 0 172 49" fill="none" xmlns="http://www.w3.org/2000/svg">
    <path d="M5.756 33.987H.555l5.86-17.755h6.589l5.86 17.755h-5.201L9.779 21.122H9.64L5.756 33.987zm-.97-7.005h9.779v3.607h-9.78v-3.606zm20.643-10.75v17.755h-4.785V16.232h4.785zm2.439 22.749V20.67h4.75v2.324h.104a4.02 4.02 0 0 1 .763-1.24 3.633 3.633 0 0 1 1.249-.91c.497-.232 1.075-.347 1.734-.347.878 0 1.713.234 2.505.702.798.468 1.445 1.205 1.942 2.21.503 1.006.754 2.313.754 3.92 0 1.537-.24 2.811-.72 3.822-.473 1.012-1.109 1.766-1.907 2.263a4.811 4.811 0 0 1-2.609.746c-.624 0-1.182-.102-1.673-.304a3.863 3.863 0 0 1-1.249-.84 3.887 3.887 0 0 1-.789-1.214h-.069v7.178h-4.785zm4.681-11.652c0 .648.084 1.208.252 1.682.173.468.416.832.728 1.092.318.255.696.382 1.135.382.44 0 .812-.124 1.119-.373.312-.254.549-.615.71-1.084.168-.473.252-1.04.252-1.699s-.084-1.222-.251-1.69c-.162-.474-.4-.835-.711-1.084-.307-.254-.68-.381-1.119-.381-.439 0-.817.127-1.135.381-.312.249-.555.61-.729 1.084-.167.468-.25 1.031-.25 1.69zm15.91-.832v7.49h-4.785V16.232h4.612v6.97h.139c.3-.849.8-1.51 1.5-1.985.699-.48 1.54-.72 2.522-.72.942 0 1.76.215 2.454.642a4.32 4.32 0 0 1 1.621 1.769c.387.751.578 1.612.572 2.583v8.496H52.31v-7.49c.006-.659-.16-1.176-.494-1.552-.33-.375-.8-.563-1.413-.563a1.98 1.98 0 0 0-1.023.26 1.72 1.72 0 0 0-.677.728c-.156.312-.237.688-.242 1.127zm14.708 7.698c-.85 0-1.6-.138-2.254-.416a3.388 3.388 0 0 1-1.526-1.283c-.37-.572-.555-1.3-.555-2.185 0-.728.125-1.349.373-1.863.249-.52.596-.945 1.04-1.275a4.91 4.91 0 0 1 1.552-.754 9.408 9.408 0 0 1 1.925-.338 18.853 18.853 0 0 0 1.794-.208c.457-.087.786-.205.989-.356a.74.74 0 0 0 .303-.615v-.035c0-.347-.133-.613-.399-.797-.265-.185-.606-.278-1.023-.278-.456 0-.829.101-1.118.304-.283.196-.454.5-.511.91h-4.404c.057-.81.315-1.555.771-2.237.462-.688 1.136-1.237 2.02-1.647.884-.416 1.988-.624 3.312-.624.953 0 1.809.112 2.566.338.757.22 1.401.529 1.933.928.532.393.936.855 1.214 1.387.283.526.425 1.098.425 1.716v9.12H67.12v-1.872h-.104c-.266.497-.59.898-.97 1.205a3.573 3.573 0 0 1-1.292.667 5.699 5.699 0 0 1-1.587.208zm1.56-3.017c.365 0 .706-.075 1.024-.225.323-.15.586-.367.788-.65.203-.283.304-.627.304-1.032v-1.11a5.565 5.565 0 0 1-.408.148 8.24 8.24 0 0 1-.954.243c-.173.034-.355.066-.545.095-.37.058-.674.153-.91.286a1.349 1.349 0 0 0-.52.477 1.2 1.2 0 0 0-.166.624c0 .37.13.653.39.85.26.196.593.294.998.294zm9.153 2.81V20.67h4.543v2.532h.139c.277-.833.751-1.491 1.422-1.977.67-.485 1.468-.728 2.392-.728.936 0 1.743.248 2.419.745a2.95 2.95 0 0 1 1.222 1.96h.14c.225-.815.704-1.468 1.438-1.96.734-.497 1.595-.745 2.584-.745 1.277 0 2.311.41 3.103 1.23.798.821 1.197 1.914 1.197 3.278v8.981h-4.786V26.22c0-.584-.147-1.04-.442-1.37-.295-.335-.69-.503-1.188-.503-.491 0-.881.168-1.17.503-.283.33-.425.786-.425 1.37v7.767h-4.577V26.22c0-.584-.148-1.04-.442-1.37-.295-.335-.691-.503-1.188-.503-.33 0-.613.075-.85.225-.237.15-.422.367-.555.65-.127.278-.19.61-.19.998v7.767H73.88zm29.34.242c-1.422 0-2.648-.272-3.676-.815a5.71 5.71 0 0 1-2.367-2.358c-.55-1.029-.824-2.26-.824-3.693 0-1.376.278-2.578.833-3.607a5.948 5.948 0 0 1 2.349-2.4c1.011-.573 2.205-.86 3.58-.86 1.006 0 1.916.157 2.731.469a5.723 5.723 0 0 1 2.09 1.361c.578.59 1.023 1.306 1.335 2.15.312.844.468 1.795.468 2.852v1.11H97.844v-2.636h7.491a1.836 1.836 0 0 0-.295-1.005 1.876 1.876 0 0 0-.754-.685 2.219 2.219 0 0 0-1.066-.252c-.388 0-.743.084-1.067.252a2.015 2.015 0 0 0-.78.676 1.898 1.898 0 0 0-.303 1.014v2.844c0 .428.089.81.268 1.144.179.336.437.599.772.79.335.19.74.285 1.214.285.329 0 .63-.046.901-.138a2.02 2.02 0 0 0 .711-.4c.197-.178.341-.392.434-.64h4.369c-.15.924-.506 1.727-1.066 2.41-.561.676-1.304 1.202-2.228 1.577-.919.37-1.994.555-3.225.555zm16.413-13.559v3.468h-8.774V20.67h8.774zm-7.074-3.19h4.785v12.224c0 .185.032.34.095.468a.628.628 0 0 0 .295.277c.133.058.304.087.512.087.144 0 .312-.017.502-.052.197-.035.341-.064.434-.087l.694 3.364c-.214.063-.521.142-.919.234a8.106 8.106 0 0 1-1.405.182c-1.098.058-2.02-.055-2.765-.338-.746-.29-1.307-.743-1.682-1.361-.376-.619-.558-1.393-.546-2.324V17.481zm9.027 16.506V20.671h4.646v2.532h.139c.243-.937.627-1.622 1.153-2.055a2.862 2.862 0 0 1 1.864-.65c.208 0 .413.017.615.052.209.029.408.072.599.13v4.083a4.284 4.284 0 0 0-.876-.182 7.86 7.86 0 0 0-.893-.06c-.468 0-.89.106-1.266.32a2.26 2.26 0 0 0-.875.884c-.214.376-.321.818-.321 1.327v6.935h-4.785zm10.585 0V20.671h4.785v13.316h-4.785zm2.393-14.703a2.365 2.365 0 0 1-1.665-.642c-.462-.427-.694-.941-.694-1.543 0-.6.232-1.115.694-1.543a2.365 2.365 0 0 1 1.665-.641c.653 0 1.207.214 1.664.641.462.428.694.942.694 1.543 0 .602-.232 1.116-.694 1.543-.457.428-1.011.642-1.664.642zM145.81 34.23c-1.445 0-2.682-.286-3.711-.858a5.905 5.905 0 0 1-2.366-2.41c-.549-1.035-.824-2.234-.824-3.598 0-1.364.275-2.56.824-3.59a5.837 5.837 0 0 1 2.366-2.41c1.029-.577 2.266-.866 3.711-.866 1.306 0 2.436.237 3.39.71.959.469 1.702 1.134 2.228 1.995.526.855.791 1.86.797 3.017h-4.439c-.063-.7-.265-1.232-.606-1.596-.336-.37-.769-.554-1.301-.554-.416 0-.78.12-1.092.364-.312.237-.555.598-.728 1.083-.174.48-.26 1.084-.26 1.812 0 .729.086 1.335.26 1.82.173.48.416.842.728 1.084.312.237.676.356 1.092.356.353 0 .665-.081.937-.243.271-.167.491-.41.658-.728.174-.324.278-.717.312-1.18h4.439c-.017 1.174-.286 2.197-.806 3.07-.52.867-1.257 1.537-2.211 2.011-.948.474-2.08.711-3.398.711zm13.487-17.997 2.913 5.166h.139l2.947-5.166h5.375l-5.305 8.877 5.513 8.877h-5.513l-3.017-5.27h-.139l-3.017 5.27h-5.479l5.445-8.877-5.271-8.877h5.409zM73.793 14.345h20.529v3.773H73.793z" fill="#000"/>
</svg>
